<?xml version="1.0" encoding="iso-8859-1"?>
<!-- Generator: Adobe Illustrator 15.0.0, SVG Export Plug-In . SVG Version: 6.00 Build 0)  -->
<!DOCTYPE svg PUBLIC "-//W3C//DTD SVG 1.1//EN" "http://www.w3.org/Graphics/SVG/1.1/DTD/svg11.dtd">
<svg version="1.1" xmlns="http://www.w3.org/2000/svg" xmlns:xlink="http://www.w3.org/1999/xlink" x="0px" y="0px" width="800px"
	 height="600px" viewBox="0 0 800 600" style="enable-background:new 0 0 800 600;" xml:space="preserve">
<g id="tlo-miasto">
	<image style="overflow:visible;" width="1440" height="900" xlink:href="FC983068.jpg"  transform="matrix(1 0 0 1 843 20)">
	</image>
	<linearGradient id="sky_1_" gradientUnits="userSpaceOnUse" x1="399.9995" y1="1.6055" x2="399.9995" y2="597.3481">
		<stop  offset="0" style="stop-color:#040442"/>
		<stop  offset="0.2477" style="stop-color:#050F49"/>
		<stop  offset="0.6826" style="stop-color:#082C5D"/>
		<stop  offset="1" style="stop-color:#0A466E"/>
	</linearGradient>
	<rect id="sky" style="fill:url(#sky_1_);" width="800" height="600"/>
	<linearGradient id="luna_1_" gradientUnits="userSpaceOnUse" x1="400.0005" y1="488.6045" x2="400.0005" y2="302.6269">
		<stop  offset="0" style="stop-color:#EAF18F"/>
		<stop  offset="0.0956" style="stop-color:#DFE98D;stop-opacity:0.9044"/>
		<stop  offset="0.2642" style="stop-color:#C1D289;stop-opacity:0.7358"/>
		<stop  offset="0.486" style="stop-color:#91AD82;stop-opacity:0.514"/>
		<stop  offset="0.7493" style="stop-color:#4F7B78;stop-opacity:0.2507"/>
		<stop  offset="1" style="stop-color:#0A466E;stop-opacity:0"/>
	</linearGradient>
	<rect id="luna" y="300" style="fill:url(#luna_1_);" width="800" height="191"/>
	<g id="moon" style="opacity:0.66;">
		<g>
			
				<image style="overflow:visible;opacity:0.75;" width="121" height="121" xlink:href="FC983065.png"  transform="matrix(1 0 0 1 635.5596 28.5601)">
			</image>
			<path style="fill:#FFFFFF;" d="M718.608,46c4.567,6.932,7.228,15.23,7.228,24.151c0,24.277-19.681,43.958-43.958,43.958
				c-8.813,0-17.021-2.597-23.9-7.063c7.86,11.931,21.374,19.806,36.73,19.806c24.276,0,43.956-19.681,43.956-43.957
				C738.664,67.432,730.679,53.836,718.608,46"/>
		</g>
	</g>
	<g id="cloud" style="opacity:0.2;">
		<g>
			<defs>
				<rect id="SVGID_1_" x="54.858" y="168.127" width="83.893" height="40.874"/>
			</defs>
			<clipPath id="SVGID_2_">
				<use xlink:href="#SVGID_1_"  style="overflow:visible;"/>
			</clipPath>
			<path style="clip-path:url(#SVGID_2_);fill:#FFFFFF;" d="M138.25,209.001c0.324-0.977,0.5-2.018,0.5-3.1
				c0-5.451-4.418-9.869-9.869-9.869c-1.363,0-2.662,0.275-3.844,0.775c-2.092-6.617-8.279-11.416-15.588-11.416
				c-2.486,0-4.842,0.558-6.953,1.551c0.02-0.329,0.029-0.661,0.029-0.995c0-9.843-7.979-17.82-17.818-17.82
				c-9.842,0-17.82,7.978-17.82,17.82c0,2.045,0.348,4.006,0.982,5.834c-0.325-0.027-0.651-0.045-0.982-0.045
				c-6.643,0-12.029,5.387-12.029,12.031c0,1.875,0.431,3.65,1.195,5.232H138.25z"/>
		</g>
	</g>
	<g id="cloud_1_" style="opacity:0.2;">
		<g>
			<defs>
				<rect id="SVGID_3_" x="669.876" y="235.814" width="83.893" height="40.874"/>
			</defs>
			<clipPath id="SVGID_4_">
				<use xlink:href="#SVGID_3_"  style="overflow:visible;"/>
			</clipPath>
			<path style="clip-path:url(#SVGID_4_);fill:#FFFFFF;" d="M753.269,276.688c0.324-0.977,0.5-2.018,0.5-3.1
				c0-5.451-4.418-9.869-9.869-9.869c-1.363,0-2.662,0.275-3.844,0.775c-2.092-6.617-8.279-11.415-15.588-11.415
				c-2.486,0-4.842,0.557-6.953,1.551c0.02-0.33,0.029-0.662,0.029-0.996c0-9.842-7.979-17.82-17.818-17.82
				c-9.842,0-17.82,7.978-17.82,17.82c0,2.045,0.348,4.007,0.982,5.835c-0.325-0.027-0.651-0.045-0.982-0.045
				c-6.643,0-12.029,5.387-12.029,12.031c0,1.875,0.431,3.65,1.195,5.232H753.269z"/>
		</g>
	</g>
	<g id="cloud_2_" style="opacity:0.2;">
		<g>
			<defs>
				<rect id="SVGID_5_" x="138.751" y="244.563" width="72.749" height="40.874"/>
			</defs>
			<clipPath id="SVGID_6_">
				<use xlink:href="#SVGID_5_"  style="overflow:visible;"/>
			</clipPath>
			<path style="clip-path:url(#SVGID_6_);fill:#FFFFFF;" d="M139.185,285.437c-0.281-0.977-0.434-2.018-0.434-3.1
				c0-5.451,3.831-9.869,8.558-9.869c1.183,0,2.309,0.275,3.334,0.775c1.813-6.617,7.179-11.415,13.517-11.415
				c2.156,0,4.199,0.557,6.03,1.551c-0.018-0.33-0.025-0.662-0.025-0.996c0-9.842,6.918-17.82,15.451-17.82
				c8.534,0,15.453,7.979,15.453,17.82c0,2.045-0.302,4.007-0.852,5.835c0.282-0.027,0.564-0.045,0.852-0.045
				c5.761,0,10.432,5.387,10.432,12.031c0,1.875-0.374,3.65-1.037,5.232H139.185z"/>
		</g>
	</g>
	<g id="cloud2" style="opacity:0.3;">
		<g>
			<defs>
				<rect id="SVGID_7_" x="27.521" y="37.866" width="222.46" height="61.249"/>
			</defs>
			<clipPath id="SVGID_8_">
				<use xlink:href="#SVGID_7_"  style="overflow:visible;"/>
			</clipPath>
			<path style="clip-path:url(#SVGID_8_);fill:#FFFFFF;" d="M249.98,99.115c-5.512-11.05-16.189-18.543-28.462-18.543
				c-6.448,0-12.45,2.076-17.502,5.641c0.712-1.722,1.118-3.627,1.118-5.641c0-7.563-5.576-13.691-12.454-13.691
				c-6.876,0-12.452,6.129-12.452,13.691c0,0.345,0.024,0.686,0.048,1.025l-0.191,0.016c-1.058-9.027-8.069-16.005-16.57-16.005
				c-7.258,0-13.431,5.087-15.74,12.194c-2.539-5.522-7.741-9.313-13.753-9.313c-7.439,0-13.646,5.8-15.086,13.51l-0.224-0.051
				c1.416-3.758,2.203-7.876,2.203-12.197c0-17.609-12.984-31.886-29.002-31.886S62.912,52.143,62.912,69.752
				c0,0.567,0.015,1.131,0.041,1.691c-3.746-3.418-8.556-5.475-13.805-5.475c-11.946,0-21.628,10.646-21.628,23.778
				c0,3.327,0.624,6.493,1.745,9.368H249.98z"/>
		</g>
	</g>
	<g id="cloud2_1_" style="opacity:0.26;">
		<g>
			<defs>
				<rect id="SVGID_9_" x="487.072" y="122.55" width="244.581" height="61.249"/>
			</defs>
			<clipPath id="SVGID_10_">
				<use xlink:href="#SVGID_9_"  style="overflow:visible;"/>
			</clipPath>
			<path style="clip-path:url(#SVGID_10_);fill:#FFFFFF;" d="M487.072,183.799c6.061-11.05,17.799-18.543,31.292-18.543
				c7.089,0,13.688,2.076,19.242,5.641c-0.782-1.722-1.229-3.627-1.229-5.641c0-7.563,6.13-13.691,13.692-13.691
				c7.561,0,13.69,6.129,13.69,13.691c0,0.345-0.026,0.686-0.053,1.025l0.21,0.016c1.163-9.027,8.872-16.005,18.218-16.005
				c7.979,0,14.767,5.087,17.305,12.194c2.791-5.522,8.511-9.313,15.121-9.313c8.179,0,15.003,5.8,16.586,13.51l0.246-0.051
				c-1.557-3.758-2.422-7.876-2.422-12.197c0-17.609,14.275-31.886,31.886-31.886s31.885,14.276,31.885,31.886
				c0,0.567-0.016,1.131-0.045,1.691c4.118-3.418,9.407-5.475,15.178-5.475c13.134,0,23.778,10.646,23.778,23.778
				c0,3.327-0.686,6.493-1.918,9.368H487.072z"/>
		</g>
	</g>
	<g>
		<g>
			<defs>
				<rect id="SVGID_11_" x="692.647" y="308.564" width="107.353" height="107.352"/>
			</defs>
			<clipPath id="SVGID_12_">
				<use xlink:href="#SVGID_11_"  style="overflow:visible;"/>
			</clipPath>
			<g style="clip-path:url(#SVGID_12_);">
				<defs>
					<path id="SVGID_13_" d="M800,362.239c0,29.646-24.032,53.677-53.675,53.677c-29.645,0-53.678-24.031-53.678-53.677
						c0-29.644,24.033-53.675,53.678-53.675C775.968,308.564,800,332.596,800,362.239"/>
				</defs>
				<clipPath id="SVGID_14_">
					<use xlink:href="#SVGID_13_"  style="overflow:visible;"/>
				</clipPath>
				<defs>
					<filter id="Adobe_OpacityMaskFilter" filterUnits="userSpaceOnUse" x="692.647" y="308.564" width="107.353" height="107.352">
						<feColorMatrix  type="matrix" values="1 0 0 0 0  0 1 0 0 0  0 0 1 0 0  0 0 0 1 0"/>
					</filter>
				</defs>
				<mask maskUnits="userSpaceOnUse" x="692.647" y="308.564" width="107.353" height="107.352" id="SVGID_15_">
					<g style="filter:url(#Adobe_OpacityMaskFilter);">
						
							<radialGradient id="SVGID_16_" cx="10.3613" cy="697.9707" r="0.822" gradientTransform="matrix(65.2893 0 0 -65.2893 69.863 45932.207)" gradientUnits="userSpaceOnUse">
							<stop  offset="0" style="stop-color:#FFFFFF"/>
							<stop  offset="0.043" style="stop-color:#FAFAFA"/>
							<stop  offset="0.0917" style="stop-color:#EDEDED"/>
							<stop  offset="0.1432" style="stop-color:#D6D6D6"/>
							<stop  offset="0.1963" style="stop-color:#B7B7B7"/>
							<stop  offset="0.2023" style="stop-color:#B2B2B2"/>
							<stop  offset="0.3577" style="stop-color:#767676"/>
							<stop  offset="0.5372" style="stop-color:#373737"/>
							<stop  offset="0.6685" style="stop-color:#0F0F0F"/>
							<stop  offset="0.7366" style="stop-color:#000000"/>
							<stop  offset="1" style="stop-color:#000000"/>
						</radialGradient>
						<rect x="692.647" y="308.564" style="clip-path:url(#SVGID_14_);fill:url(#SVGID_16_);" width="107.353" height="107.352"/>
					</g>
				</mask>
				
					<radialGradient id="SVGID_17_" cx="10.3613" cy="697.9707" r="0.822" gradientTransform="matrix(65.2893 0 0 -65.2893 69.863 45932.207)" gradientUnits="userSpaceOnUse">
					<stop  offset="0" style="stop-color:#FBB040"/>
					<stop  offset="0.2023" style="stop-color:#FBB040"/>
					<stop  offset="0.7366" style="stop-color:#FBB040"/>
					<stop  offset="1" style="stop-color:#FBB040"/>
				</radialGradient>
				
					<rect x="692.647" y="308.564" style="clip-path:url(#SVGID_14_);mask:url(#SVGID_15_);fill:url(#SVGID_17_);" width="107.353" height="107.352"/>
			</g>
		</g>
	</g>
	<rect x="-307.875" y="300" style="fill:#1E1736;" width="120.924" height="107.913"/>
	<g>
		<path style="fill:#000819;" d="M651.939,302.943V256.25h-52.597v112.376h-45.584v122.324h45.584v0.873h38.571h14.025h68.96
			V302.943H651.939z M670.711,484.057h-15.265v-22.432h15.265V484.057z M670.711,447.049h-15.265v-22.432h15.265V447.049z
			 M670.711,410.041h-15.265v-22.432h15.265V410.041z M670.711,373.033h-15.265v-22.432h15.265V373.033z M670.711,336.025h-15.265
			v-22.432h15.265V336.025z M692.063,484.057h-15.263v-22.432h15.263V484.057z M692.063,447.049h-15.263v-22.432h15.263V447.049z
			 M692.063,410.041h-15.263v-22.432h15.263V410.041z M692.063,373.033h-15.263v-22.432h15.263V373.033z M692.063,336.025h-15.263
			v-22.432h15.263V336.025z M713.418,484.057h-15.264v-22.432h15.264V484.057z M713.418,447.049h-15.264v-22.432h15.264V447.049z
			 M713.418,410.041h-15.264v-22.432h15.264V410.041z M713.418,373.033h-15.264v-22.432h15.264V373.033z M713.418,336.025h-15.264
			v-22.432h15.264V336.025z M756,357h4v132h-4V357z M741,364h15v-7h-15V364z"/>
		<g style="opacity:0.63;">
			<rect x="655" y="351" style="fill:#E2C374;" width="16" height="22"/>
		</g>
		<g style="opacity:0.63;">
			<rect x="676" y="387" style="fill:#E2C374;" width="16" height="22"/>
		</g>
		<rect x="721" y="429" style="fill:#000819;" width="79" height="63"/>
	</g>
	<g>
		<path style="fill:#000819;" d="M246.123,344.841v-36.276h-52.597v87.308h-26.388v-51.031h-68.96v-36.276H45.584v87.308H0v95.036
			h45.584v0.678h38.569h14.025h68.96v-0.678h26.388v0.678h38.57h14.026h68.959V344.841H246.123z M264.894,485.55h-15.265v-17.427
			h15.265V485.55z M264.894,456.799h-15.265v-17.426h15.265V456.799z M264.894,428.047h-15.265v-17.428h15.265V428.047z
			 M264.894,399.295h-15.265v-17.428h15.265V399.295z M264.894,370.542h-15.265v-17.427h15.265V370.542z M78.667,339.875H63.402
			v-17.427h15.265V339.875z M78.667,374.25H63.402v-17.427h15.265V374.25z M78.667,430.583H63.402v-17.427h15.265V430.583z
			 M106.598,430.583H91.333v-17.427h15.265V430.583z M106.598,403.276H91.333V385.85h15.265V403.276z M106.598,374.276H91.333
			V356.85h15.265V374.276z M151.932,403.276h-15.265V385.85h15.265V403.276z M129.748,403.276h-15.265V385.85h15.265V403.276z
			 M151.932,374.276h-15.265V356.85h15.265V374.276z M152.265,430.583H137v-17.427h15.265V430.583z M230.276,430.583h-15.265
			v-17.427h15.265V430.583z M230.276,372.714h-15.265v-17.427h15.265V372.714z M286.248,485.55h-15.264v-17.427h15.264V485.55z
			 M286.248,456.799h-15.264v-17.426h15.264V456.799z M286.248,428.047h-15.264v-17.428h15.264V428.047z M286.248,399.295h-15.264
			v-17.428h15.264V399.295z M286.248,370.542h-15.264v-17.427h15.264V370.542z M307.601,485.55h-15.265v-17.427h15.265V485.55z
			 M307.601,456.799h-15.265v-17.426h15.265V456.799z M307.601,428.047h-15.265v-17.428h15.265V428.047z M307.601,399.295h-15.265
			v-17.428h15.265V399.295z M307.601,370.542h-15.265v-17.427h15.265V370.542z"/>
		<g style="opacity:0.63;">
			<rect x="114" y="357" style="fill:#E2C374;" width="16" height="17"/>
		</g>
		<g style="opacity:0.63;">
			<rect x="63" y="386" style="fill:#E2C374;" width="16" height="17"/>
		</g>
		<g style="opacity:0.63;">
			<rect x="215" y="383" style="fill:#E2C374;" width="16" height="17"/>
		</g>
		<g style="opacity:0.63;">
			<rect x="215" y="329" style="fill:#E2C374;" width="16" height="17"/>
		</g>
		<g style="opacity:0.63;">
			<rect x="114" y="413" style="fill:#E2C374;" width="16" height="17"/>
		</g>
	</g>
	<rect id="ground" y="489" style="fill:#333333;" width="800" height="111"/>
</g>
<g id="car">
	<g>
		<g style="opacity:0.5;">
			<g>
				<defs>
					<rect id="SVGID_18_" x="602.092" y="485.063" width="146.699" height="13.522"/>
				</defs>
				<clipPath id="SVGID_19_">
					<use xlink:href="#SVGID_18_"  style="overflow:visible;"/>
				</clipPath>
				<path style="clip-path:url(#SVGID_19_);fill:#00253E;" d="M748.791,491.824c0,3.734-32.839,6.762-73.35,6.762
					c-40.51,0-73.35-3.027-73.35-6.762s32.84-6.762,73.35-6.762C715.952,485.063,748.791,488.09,748.791,491.824"/>
			</g>
		</g>
		<polygon style="fill:#06172A;" points="629.365,488.328 661.611,488.328 667.745,480.643 663.479,471.564 648.555,465.744 
			637.866,464.872 631.537,468.305 628.666,472.596 626.848,478.258 626.848,483.303 		"/>
		<polygon style="fill:#06172A;" points="694.455,488.328 726.7,488.328 732.836,480.643 728.569,471.564 713.646,465.744 
			702.954,464.872 696.627,468.305 693.756,472.596 691.939,478.258 691.939,483.303 		"/>
		<path style="fill:#202055;" d="M683.066,441.414c-19.652,0-37.104,6.592-48.085,16.785c-32.795,1.012-25.542,29.758-25.542,29.758
			h13.802c0.017,0.125,0.042,0.248,0.062,0.371h6.063c-0.47-1.539-0.726-3.168-0.726-4.859c0-9.242,7.543-16.735,16.849-16.735
			c9.305,0,16.848,7.493,16.848,16.735c0,1.691-0.256,3.32-0.725,4.859h32.745c-0.47-1.539-0.726-3.168-0.726-4.859
			c0-9.242,7.543-16.735,16.849-16.735c9.304,0,16.848,7.493,16.848,16.735c0,1.691-0.255,3.32-0.725,4.859h16.233
			c0.258-1.588,0.397-3.203,0.397-4.84C743.233,460.252,716.297,441.414,683.066,441.414"/>
		<path style="fill:#081A2D;" d="M658.513,483.303c0,7.095-5.79,12.845-12.933,12.845c-7.142,0-12.93-5.75-12.93-12.845
			c0-7.096,5.788-12.847,12.93-12.847C652.723,470.456,658.513,476.207,658.513,483.303"/>
		<path style="fill:#FFFFFF;" d="M654.705,483.303c0,5.006-4.084,9.063-9.124,9.063s-9.127-4.058-9.127-9.063
			c0-5.008,4.087-9.064,9.127-9.064S654.705,478.295,654.705,483.303"/>
		<path style="fill:#1E3045;" d="M650.659,483.303c0,2.787-2.274,5.045-5.078,5.045c-2.806,0-5.08-2.258-5.08-5.045
			s2.274-5.045,5.08-5.045C648.385,478.258,650.659,480.516,650.659,483.303"/>
		<path style="fill:#081A2D;" d="M724.756,483.303c0,7.095-5.792,12.845-12.934,12.845s-12.934-5.75-12.934-12.845
			c0-7.096,5.792-12.847,12.934-12.847S724.756,476.207,724.756,483.303"/>
		<path style="fill:#668F9E;" d="M639.818,458.527l13.126,5.121h25.487V443.86C678.432,443.86,655.992,445.489,639.818,458.527"/>
		<path style="fill:#668F9E;" d="M681.017,463.648h49.06c0,0-5.752-18.159-49.06-19.788V463.648z"/>
		<path style="fill:#FFFFFF;" d="M720.948,483.303c0,5.006-4.085,9.063-9.125,9.063s-9.127-4.058-9.127-9.063
			c0-5.008,4.087-9.064,9.127-9.064S720.948,478.295,720.948,483.303"/>
		<path style="fill:#1E3045;" d="M716.9,483.303c0,2.787-2.273,5.045-5.078,5.045c-2.804,0-5.079-2.258-5.079-5.045
			s2.275-5.045,5.079-5.045C714.627,478.258,716.9,480.516,716.9,483.303"/>
		<path style="fill:#C7B299;" d="M617.076,478.781c0-3.09-2.965-5.658-6.872-6.186c-1.692,4.73-1.575,9.521-1.243,12.467
			C613.465,484.967,617.076,482.193,617.076,478.781"/>
		<path style="fill:#C7B299;" d="M736.285,476.916c0,4.5,2.523,8.146,5.637,8.146c0.438,0,0.867-0.074,1.276-0.213
			c0.022-0.452,0.035-0.905,0.035-1.361c0-4.945-1.224-9.691-3.468-14.101C737.723,470.61,736.285,473.521,736.285,476.916"/>
	</g>
</g>
<g id="block">
	<rect x="244" y="41" style="fill:#666666;" width="312" height="448"/>
</g>
</svg>
