<?xml version="1.0" encoding="iso-8859-1"?>
<!-- Generator: Adobe Illustrator 15.0.0, SVG Export Plug-In . SVG Version: 6.00 Build 0)  -->
<!DOCTYPE svg PUBLIC "-//W3C//DTD SVG 1.1//EN" "http://www.w3.org/Graphics/SVG/1.1/DTD/svg11.dtd">
<svg version="1.1" id="Warstwa_1" xmlns="http://www.w3.org/2000/svg" xmlns:xlink="http://www.w3.org/1999/xlink" x="0px" y="0px"
	 width="1600px" height="60px" viewBox="0 0 1600 60" style="enable-background:new 0 0 1600 60;" xml:space="preserve">
<rect style="fill:#4D4D4D;" width="1600" height="60"/>
<g>
	<path style="fill:#FFFFFF;" d="M79,39c0,3.866-3.134,7-7,7H37c-3.866,0-7-3.134-7-7V22c0-3.866,3.134-7,7-7h35c3.866,0,7,3.134,7,7
		V39z"/>
</g>
<g>
	<path style="fill:#FFFFFF;" d="M1570,39c0,3.866-3.134,7-7,7h-35c-3.866,0-7-3.134-7-7V22c0-3.866,3.134-7,7-7h35
		c3.866,0,7,3.134,7,7V39z"/>
</g>
</svg>
